<?xml version="1.0" standalone="no"?><svg xmlns="http://www.w3.org/2000/svg" viewBox="0 0 1440 320"><path fill="#0099ff" fill-opacity="1" d="M0,256L26.7,224C53.3,192,107,128,160,117.3C213.3,107,267,149,320,160C373.3,171,427,149,480,144C533.3,139,587,149,640,149.3C693.3,149,747,139,800,160C853.3,181,907,235,960,266.7C1013.3,299,1067,309,1120,261.3C1173.3,213,1227,107,1280,80C1333.3,53,1387,107,1413,133.3L1440,160L1440,0L1413.3,0C1386.7,0,1333,0,1280,0C1226.7,0,1173,0,1120,0C1066.7,0,1013,0,960,0C906.7,0,853,0,800,0C746.7,0,693,0,640,0C586.7,0,533,0,480,0C426.7,0,373,0,320,0C266.7,0,213,0,160,0C106.7,0,53,0,27,0L0,0Z"></path></svg>